<svg width="40" height="40" viewBox="0 0 40 40" xmlns="http://www.w3.org/2000/svg">
  <circle cx="20" cy="20" r="20" fill="#F77E2D"/>
  <path fill-rule="evenodd" clip-rule="evenodd" d="M25 10C25 8.89543 25.8954 8 27 8C28.1046 8 29 8.89543 29 10C29 11.1046 28.1046 12 27 12C25.8954 12 25 11.1046 25 10ZM23.3753 12.2191C23.8006 11.8789 24.4116 11.9448 24.7572 12.3466L24.8321 12.4453L26.535 15H29C29.5128 15 29.9355 15.386 29.9933 15.8834L30 16C30 16.5128 29.614 16.9355 29.1166 16.9933L29 17H26C25.7074 17 25.4318 16.8721 25.2432 16.6537L25.1679 16.5547L23.772 14.462L20.497 17.082L22.7071 19.2929C22.8634 19.4492 22.9626 19.6519 22.9913 19.8686L23 20V24C23 24.5523 22.5523 25 22 25C21.4872 25 21.0645 24.614 21.0067 24.1166L21 24V20.415L18.2929 17.7071C17.9016 17.3158 17.9067 16.6892 18.2821 16.3036L18.3753 16.2191L23.3753 12.2191ZM15 19C12.7909 19 11 20.7909 11 23C11 25.2091 12.7909 27 15 27C17.2091 27 19 25.2091 19 23C19 20.7909 17.2091 19 15 19ZM15 21C16.1046 21 17 21.8954 17 23C17 24.1046 16.1046 25 15 25C13.8954 25 13 24.1046 13 23C13 21.8954 13.8954 21 15 21ZM29 19C26.7909 19 25 20.7909 25 23C25 25.2091 26.7909 27 29 27C31.2091 27 33 25.2091 33 23C33 20.7909 31.2091 19 29 19ZM29 21C30.1046 21 31 21.8954 31 23C31 24.1046 30.1046 25 29 25C27.8954 25 27 24.1046 27 23C27 21.8954 27.8954 21 29 21Z" fill="#FFF"/>
</svg>
