<svg width="40" height="40" viewBox="0 0 40 40" fill="none" xmlns="http://www.w3.org/2000/svg">
  <circle cx="20" cy="20" r="20" fill="#F77E2D"/>
  <path fill-rule="evenodd" clip-rule="evenodd" d="M10 20C10 26.6274 15.3726 32 22 32H22.23C22.8375 31.9719 23.4106 31.7104 23.83 31.27C24.2504 30.8225 24.4706 30.2232 24.44 29.61C24.4219 29.0059 24.1583 28.4353 23.71 28.03C23.6526 27.9713 23.5848 27.9238 23.51 27.89C23.1892 27.7098 22.9933 27.3679 23 27C23 26.4477 23.4477 26 24 26H26.5C29.3967 26.1302 31.8544 23.8959 32 21C32 16 27.51 12 22 12C16.4772 12 12 16.4772 12 22ZM11.9 21.9C11.9552 17.4817 15.5817 13.9448 20 14C24.41 14 28 17.14 28 21C27.846 22.7868 26.2893 24.1211 24.5 24H22C20.3625 23.9998 19.0273 25.3127 19 26.95C18.9783 28.0022 19.5096 28.9889 20.4 29.55C20.4123 29.5992 20.4123 29.6508 20.4 29.7C20.4116 29.7723 20.3895 29.846 20.34 29.9C20.2599 29.9696 20.156 30.0054 20.05 30C19.9674 29.9848 19.8826 29.9848 19.8 30C15.3817 29.9448 11.8448 26.3183 11.9 21.9ZM15.5 22C14.6716 22 14 21.3284 14 20.5C14 19.6716 14.6716 19 15.5 19C16.3284 19 17 19.6716 17 20.5C17 21.3284 16.3284 22 15.5 22ZM20 19C19.1716 19 18.5 18.3284 18.5 17.5C18.5 16.6716 19.1716 16 20 16C20.8284 16 21.5 16.6716 21.5 17.5C21.5 18.3284 20.8284 19 20 19ZM24.5 22C23.6716 22 23 21.3284 23 20.5C23 19.6716 23.6716 19 24.5 19C25.3284 19 26 19.6716 26 20.5C26 21.3284 25.3284 22 24.5 22Z" fill="#FFF"/>
</svg>
