<svg width="40" height="40" viewBox="0 0 40 40" fill="none" xmlns="http://www.w3.org/2000/svg">
  <circle cx="20" cy="20" r="20" fill="#F77E2D"/>
  <path fill-rule="evenodd" clip-rule="evenodd" d="M29.5 14C30.3522 14 30.7974 14.9855 30.2832 15.6225L30.2071 15.7071L26.415 19.5L30.2071 23.2929C30.8097 23.8955 30.4277 24.9072 29.6136 24.994L29.5 25H16.5V31C16.5 31.5128 16.114 31.9355 15.6166 31.9933L15.5 32C14.9872 32 14.5645 31.614 14.5067 31.1166L14.5 31V15C14.5 14.4872 14.886 14.0645 15.3834 14.0067L15.5 14H29.5ZM27.084 16H16.5V23H27.085L24.2929 20.2071C23.9324 19.8466 23.9047 19.2794 24.2097 18.8871L24.2929 18.7929L27.084 16Z" fill="#FFF"/>
</svg>
