<svg width="40" height="40" viewBox="0 0 40 40" fill="none" xmlns="http://www.w3.org/2000/svg">
  <!-- Circle background -->
  <circle cx="20" cy="20" r="20" fill="#F77E2D"/>
  
  <!-- Icon path -->
  <path fill-rule="evenodd" clip-rule="evenodd" d="M12.5037 3.16839C13.0166 2.48588 13.7372 2.3617 14.4191 2.87457C16.9311 4.69336 18.7004 7.50537 18.7004 9.50011C18.7004 10.0524 18.2527 10.5001 17.7004 10.5001C17.1482 10.5001 16.7004 10.0524 16.7004 9.50011C16.7004 8.13769 15.2283 5.05356 14.1462 4.33216C13.6645 4.0258 13.5403 3.40493 14.0037 2.94541ZM29.6104 7.83611C29.1499 7.52971 28.4791 7.65383 28.1716 8.11333C27.8642 8.57283 27.9884 9.19371 28.4479 9.5001C30.5086 11.2614 32.9887 14.3566 33.3803 17.0677C33.4295 17.3399 33.5892 17.5796 33.8215 17.7298L33.9412 17.8159C34.3237 18.1203 34.5365 18.5951 34.5037 19.089C34.4675 19.6323 34.1398 20.1134 33.6475 20.3458L33.544 20.4024C33.345 20.5269 33.195 20.7183 33.1224 20.9442C32.0592 24.2529 28.9813 26.4968 25.5059 26.4968C22.0306 26.4968 18.9527 24.2529 17.8895 20.9442C17.8048 20.6807 17.6147 20.464 17.3644 20.3458L17.2343 20.2764C16.8149 20.0254 16.5411 19.5829 16.5082 19.089C16.4721 18.5457 16.7332 18.0255 17.1904 17.7298L17.2854 17.6602C17.4661 17.5105 17.5894 17.301 17.6316 17.0677C18.0097 14.9716 19.2082 13.1128 20.9613 11.9032C21.4159 11.5896 21.5302 10.9668 21.2165 10.5122C20.9029 10.0576 20.2801 9.94336 19.8256 10.25702L19.5553 10.45019C17.6888 11.8316 16.3638 13.8178 15.8027 16.064L15.7434 16.3181L15.6102 16.4368C14.8538 17.1463 14.4424 18.1653 14.5126 19.2217L14.5329 19.4316C14.6566 20.404 15.1819 21.2739 15.9694 21.8368L16.1164 21.9351L16.1773 22.0995C17.6574 25.9358 21.3548 28.4968 25.5059 28.4968L25.7948 28.4926C29.8279 28.377 33.3889 25.8465 34.8346 22.0995L34.8944 21.9351L35.0425 21.8368C35.8863 21.2337 36.429 20.2782 36.4993 19.2217L36.5069 19.011C36.5131 18.0308 36.1077 17.099 35.4016 16.4368L35.2684 16.3181L35.2124 16.077C34.6135 13.6658 33.1352 11.555 31.0552 10.1681ZM26.4003 19.7858C26.0058 19.3993 25.3727 19.4058 24.9862 19.8003C24.5159 20.2802 23.8723 20.5506 23.2004 20.5506C22.5286 20.5506 21.885 20.2802 21.4147 19.8003C21.0282 19.4058 20.3951 19.3993 20.0006 19.7858C19.6061 20.1723 19.5996 20.8055 19.9862 21.2C20.8326 22.0638 21.991 22.5506 23.2004 22.5506C24.4098 22.5506 25.5683 22.0638 26.4147 21.2C26.8012 20.8055 26.7948 20.1723 26.4003 19.7858ZM24.5004 3.00011C24.1691 2.55828 23.5423 2.46874 23.1004 2.80011C22.6586 3.13148 22.5691 3.75828 22.9004 4.20011C24.1997 5.93249 24.7004 7.23434 24.7004 8.60011C24.7004 9.15239 25.1482 9.60011 25.7004 9.60011C26.2527 9.60011 26.7004 9.15239 26.7004 8.60011C26.7004 6.76587 26.0433 5.0572 24.5004 3.00011ZM18.5104 12.0001C19.0627 12.0001 19.5104 12.4478 19.5104 13.0001C19.5104 13.5129 19.1244 13.9356 18.6271 13.9934L18.5004 14.0001C17.9482 14.0001 17.5004 13.5524 17.5004 13.0001C17.5004 12.4873 17.8865 12.0646 18.3838 12.0068L18.5104 12.0001ZM25.5104 13.0001C25.5104 12.4478 25.0627 12.0001 24.5104 12.0001L24.3838 12.0068C23.8865 12.0646 23.5004 12.4873 23.5004 13.0001C23.5004 13.5524 23.9482 14.0001 24.5004 14.0001L24.6271 13.9934C25.1244 13.9356 25.5104 13.5129 25.5104 13.0001Z" fill="#FFF"/>
</svg>
