<svg width="25" height="24" viewBox="0 0 25 24" fill="none" xmlns="http://www.w3.org/2000/svg">
  <!-- Circle background -->
  <circle cx="12.5" cy="12" r="12" fill="#F77E2D"/>

  <!-- Path for icon -->
  <path d="M9.60526 11.3158L12.5255 6.00618C12.7655 5.5699 13.3924 5.5699 13.6323 6.00618L14.6358 7.83069C14.7468 8.03251 14.9589 8.15789 15.1892 8.15789H16.1984C16.4184 8.15789 16.6226 8.2724 16.7373 8.46014L22.9128 18.5654C23.17 18.9863 22.8671 19.5263 22.3739 19.5263H15.3947M15.3947 19.5263H2.73323C2.21838 19.5263 1.91985 18.9434 2.22074 18.5256L7.4976 11.1991C7.70212 10.9151 8.09855 10.8516 8.38157 11.0574L12.9452 14.3764C13.0329 14.4402 13.1027 14.5255 13.1479 14.624L14.2368 17L15.3947 19.5263Z" stroke="#FFF" stroke-width="2"/>
  <path d="M13.0801 14.4729L14.971 12.9258C15.2146 12.7264 15.5679 12.737 15.7993 12.9505L22.9222 19.5255" stroke="#FFF" stroke-width="2"/>
</svg>
