<svg width="24" height="24" viewBox="0 0 24 24" fill="none" xmlns="http://www.w3.org/2000/svg">
<path fill-rule="evenodd" clip-rule="evenodd" d="M15 5C15 3.89543 15.8954 3 17 3C18.1046 3 19 3.89543 19 5C19 6.10457 18.1046 7 17 7C15.8954 7 15 6.10457 15 5ZM13.3753 7.21913C13.8006 6.87893 14.4116 6.94479 14.7572 7.34663L14.8321 7.4453L16.535 10H19C19.5128 10 19.9355 10.386 19.9933 10.8834L20 11C20 11.5128 19.614 11.9355 19.1166 11.9933L19 12H16C15.7074 12 15.4318 11.8721 15.2432 11.6537L15.1679 11.5547L13.772 9.462L10.497 12.082L12.7071 14.2929C12.8634 14.4492 12.9626 14.6519 12.9913 14.8686L13 15V19C13 19.5523 12.5523 20 12 20C11.4872 20 11.0645 19.614 11.0067 19.1166L11 19V15.415L8.29289 12.7071C7.90155 12.3158 7.90675 11.6892 8.28212 11.3036L8.37531 11.2191L13.3753 7.21913ZM5 14C2.79086 14 1 15.7909 1 18C1 20.2091 2.79086 22 5 22C7.20914 22 9 20.2091 9 18C9 15.7909 7.20914 14 5 14ZM5 16C6.10457 16 7 16.8954 7 18C7 19.1046 6.10457 20 5 20C3.89543 20 3 19.1046 3 18C3 16.8954 3.89543 16 5 16ZM19 14C16.7909 14 15 15.7909 15 18C15 20.2091 16.7909 22 19 22C21.2091 22 23 20.2091 23 18C23 15.7909 21.2091 14 19 14ZM19 16C20.1046 16 21 16.8954 21 18C21 19.1046 20.1046 20 19 20C17.8954 20 17 19.1046 17 18C17 16.8954 17.8954 16 19 16Z" fill="#77787C"/>
</svg>
