<svg width="64" height="64" viewBox="0 0 64 64" fill="none" xmlns="http://www.w3.org/2000/svg">
<rect width="64" height="64" rx="32" fill="#721931"/>
<path fill-rule="evenodd" clip-rule="evenodd" d="M42.6669 20H37.3149C25.8801 20 20.1817 24.7906 19.9867 32.9449L19.9824 33.6317C20.002 35.9609 20.5333 37.9549 22.1162 39.9201C21.7536 41.1466 21.4967 42.4577 21.3417 43.8528C21.2604 44.5846 21.7878 45.2439 22.5196 45.3252C23.2515 45.4065 23.9107 44.8791 23.9921 44.1472C24.1023 43.1552 24.2681 42.2177 24.4921 41.3333H28.0002C37.6785 41.3333 43.3322 35.6774 43.998 24.0764L44.0002 21.3333C44.0002 20.597 43.4033 20 42.6669 20ZM25.4182 38.6667H28.0002C36.0953 38.6667 40.5999 34.2931 41.3016 24.4945L41.3335 24V22.6667H37.3149C27.0951 22.6667 22.6673 26.5077 22.6482 33.3294L22.649 33.6166C22.6592 34.8248 22.8363 35.8734 23.3214 36.8801C24.9937 33.6152 27.6696 31.1323 31.4587 29.4483C32.1316 29.1492 32.9196 29.4522 33.2186 30.1251C33.5177 30.7981 33.2146 31.586 32.5417 31.8851C29.1205 33.4056 26.7994 35.6385 25.4182 38.6667Z" fill="white"/>
</svg>
