<svg width="21" height="20" viewBox="0 0 21 20" fill="none" xmlns="http://www.w3.org/2000/svg">
<path fill-rule="evenodd" clip-rule="evenodd" d="M15.7458 5.6866C15.6698 4.37426 14.5815 3.3335 13.2501 3.3335H4.91675L4.76985 3.33774C3.45751 3.41378 2.41675 4.5021 2.41675 5.8335V10.8335L2.42099 10.9804C2.49703 12.2927 3.58535 13.3335 4.91675 13.3335H5.75008V14.1668C5.75008 15.5475 6.86937 16.6668 8.25008 16.6668H16.5834C17.9641 16.6668 19.0834 15.5475 19.0834 14.1668V9.16683C19.0834 7.78612 17.9641 6.66683 16.5834 6.66683H15.7501V5.8335L15.7458 5.6866ZM14.0834 6.66683V5.8335C14.0834 5.40613 13.7617 5.05391 13.3473 5.00577L13.2501 5.00016H4.91675C4.48938 5.00016 4.13716 5.32186 4.08902 5.73631L4.08341 5.8335V10.8335C4.08341 11.2609 4.40511 11.6131 4.81956 11.6612L4.91675 11.6668H5.75008V9.16683C5.75008 7.78612 6.86937 6.66683 8.25008 6.66683H14.0834ZM7.41675 12.5002V9.16683C7.41675 8.70659 7.78984 8.3335 8.25008 8.3335H14.9167H16.5834C17.0437 8.3335 17.4167 8.70659 17.4167 9.16683V14.1668C17.4167 14.6271 17.0437 15.0002 16.5834 15.0002H8.25008C7.78984 15.0002 7.41675 14.6271 7.41675 14.1668V12.5002ZM9.91675 11.6668C9.91675 10.2861 11.036 9.16683 12.4167 9.16683C13.7975 9.16683 14.9167 10.2861 14.9167 11.6668C14.9167 13.0475 13.7975 14.1668 12.4167 14.1668C11.036 14.1668 9.91675 13.0475 9.91675 11.6668ZM13.2501 11.6668C13.2501 11.2066 12.877 10.8335 12.4167 10.8335C11.9565 10.8335 11.5834 11.2066 11.5834 11.6668C11.5834 12.1271 11.9565 12.5002 12.4167 12.5002C12.877 12.5002 13.2501 12.1271 13.2501 11.6668Z" fill="#77787C"/>
</svg>
