<svg width="21" height="20" viewBox="0 0 21 20" fill="none" xmlns="http://www.w3.org/2000/svg">
<path fill-rule="evenodd" clip-rule="evenodd" d="M4.41667 5C4.41667 3.61929 5.53595 2.5 6.91667 2.5H10.25C11.6307 2.5 12.75 3.61929 12.75 5C12.75 6.15289 11.9696 7.12351 10.9083 7.41243C11.0212 7.69742 11.0833 8.00813 11.0833 8.33333C11.0833 8.77888 10.9668 9.1972 10.7625 9.55947C10.9217 9.66133 11.0685 9.78073 11.2003 9.91494C10.7403 10.2363 10.3481 10.6481 10.0496 11.1246C9.89678 10.9463 9.66991 10.8333 9.41667 10.8333H6.08333C5.6231 10.8333 5.25 11.2064 5.25 11.6667C5.25 12.1269 5.6231 12.5 6.08333 12.5H9.41667C9.44509 12.5 9.47318 12.4986 9.50087 12.4958C9.44566 12.7664 9.41667 13.0465 9.41667 13.3333C9.41667 14.5136 9.9074 15.5792 10.6959 16.3373C10.2526 17.0362 9.47215 17.5 8.58333 17.5H5.25C3.86929 17.5 2.75 16.3807 2.75 15C2.75 14.1148 3.21008 13.337 3.90416 12.8928C3.69988 12.5305 3.58333 12.1122 3.58333 11.6667C3.58333 11.2211 3.69989 10.8028 3.90416 10.4405C3.21008 9.9963 2.75 9.21855 2.75 8.33333C2.75 7.18044 3.53039 6.20982 4.59174 5.9209C4.47876 5.63591 4.41667 5.32521 4.41667 5ZM8.58333 7.5C9.04357 7.5 9.41667 7.8731 9.41667 8.33333C9.41667 8.79357 9.04357 9.16667 8.58333 9.16667H5.25C4.78976 9.16667 4.41667 8.79357 4.41667 8.33333C4.41667 7.8731 4.78976 7.5 5.25 7.5H8.58333ZM10.25 5.83333H6.91667C6.45643 5.83333 6.08333 5.46024 6.08333 5C6.08333 4.53976 6.45643 4.16667 6.91667 4.16667H10.25C10.7102 4.16667 11.0833 4.53976 11.0833 5C11.0833 5.46024 10.7102 5.83333 10.25 5.83333ZM8.58333 14.1667C9.04357 14.1667 9.41667 14.5398 9.41667 15C9.41667 15.4602 9.04357 15.8333 8.58333 15.8333H5.25C4.78976 15.8333 4.41667 15.4602 4.41667 15C4.41667 14.5398 4.78976 14.1667 5.25 14.1667H8.58333Z" fill="white"/>
<path fill-rule="evenodd" clip-rule="evenodd" d="M13.5834 10.8332C12.2027 10.8332 11.0834 11.9525 11.0834 13.3332C11.0834 14.7139 12.2027 15.8332 13.5834 15.8332C14.9641 15.8332 16.0834 14.7139 16.0834 13.3332C16.0834 11.9525 14.9641 10.8332 13.5834 10.8332ZM9.41675 13.3332C9.41675 11.032 11.2822 9.1665 13.5834 9.1665C15.8846 9.1665 17.7501 11.032 17.7501 13.3332C17.7501 15.6344 15.8846 17.4998 13.5834 17.4998C11.2822 17.4998 9.41675 15.6344 9.41675 13.3332Z" fill="white"/>
</svg>
