<svg width="21" height="20" viewBox="0 0 21 20" fill="none" xmlns="http://www.w3.org/2000/svg">
<path fill-rule="evenodd" clip-rule="evenodd" d="M15.2501 3.3335C15.5062 3.3335 15.7459 3.45108 15.9027 3.64863L15.9647 3.73808L18.4647 7.90475C18.6338 8.18661 18.62 8.53802 18.438 8.80391L18.3711 8.88916L11.262 16.8334C10.9955 17.1053 10.6308 17.2586 10.2501 17.2586C9.91695 17.2586 9.59607 17.1412 9.32527 16.9113L9.21239 16.8058L2.12906 8.88916C1.90988 8.64419 1.85724 8.29647 1.9859 8.00107L2.03551 7.90475L4.5465 3.72009L4.59983 3.64562C4.63801 3.59805 4.68131 3.55475 4.72888 3.51657L4.80335 3.46324L4.87661 3.42176L4.91817 3.40238L4.96904 3.38208L5.05902 3.35551L5.15291 3.3391L5.25009 3.3335H15.2501ZM14.7784 5.00016H5.72092L3.78009 8.23516L10.2493 15.466L16.7193 8.23516L14.7784 5.00016ZM7.8455 6.61892C7.45085 6.38213 6.93897 6.5101 6.70218 6.90475L6.20218 7.73808L6.15228 7.83505C6.02305 8.13245 6.07755 8.48254 6.30014 8.72739L7.96681 10.5607L8.04193 10.6337C8.35638 10.9032 8.82963 10.9026 9.14398 10.6168L9.21696 10.5417C9.48641 10.2272 9.48582 9.75395 9.20004 9.4396L7.94926 8.06433L8.13133 7.76224L8.17653 7.67602C8.34848 7.29587 8.21196 6.8388 7.8455 6.61892Z" fill="#77787C"/>
</svg>
