<svg width="20" height="20" viewBox="0 0 20 20" fill="none" xmlns="http://www.w3.org/2000/svg">
<path fill-rule="evenodd" clip-rule="evenodd" d="M2.50871 17.4998C2.3503 17.4998 2.19189 17.4499 2.06683 17.3749C1.8167 17.2167 1.66663 16.9502 1.67496 16.6671L1.67496 5.84139H1.66663C1.66663 5.52495 1.84171 5.23349 2.12519 5.10025L7.09707 2.6173C7.10715 2.61165 7.11735 2.6062 7.12769 2.60096V2.59368C7.36114 2.46877 7.63628 2.46877 7.87807 2.59368L12.5054 4.90039L17.1327 2.59368C17.5412 2.3855 18.0415 2.54372 18.2499 2.96009C18.2999 3.06835 18.3333 3.20159 18.3333 3.3265L18.3333 14.1522C18.325 14.4603 18.1499 14.7518 17.8747 14.8933L13.0516 17.302C12.9061 17.4254 12.718 17.5 12.5134 17.5C12.3289 17.5 12.1599 17.4415 12.0231 17.3424L7.49454 15.0849L2.86723 17.3916C2.7505 17.4499 2.6171 17.4749 2.49204 17.4832L2.50871 17.4998ZM13.3471 15.3174L16.6825 13.6517L16.6825 4.68388L13.3471 6.34587L13.3471 15.3174ZM11.6796 6.34546L11.6796 15.3178L8.34477 13.6554L8.34477 4.68303L11.6796 6.34546ZM3.34246 6.34937L6.67727 4.68397L6.67727 13.648L3.34246 15.3097L3.34246 6.34937Z" fill="white"/>
</svg>
