<svg width="24" height="22" viewBox="0 0 24 22" fill="none" xmlns="http://www.w3.org/2000/svg">
<path d="M16.9289 12.4133C18.5509 12.4133 19.8657 11.087 19.8657 9.4508C19.8657 7.81465 18.5509 6.48828 16.9289 6.48828C15.307 6.48828 13.9922 7.81465 13.9922 9.4508C13.9922 11.087 15.307 12.4133 16.9289 12.4133Z" stroke="white" stroke-width="2"/>
<path d="M15.1677 15.2773H18.7433C20.7786 15.2773 22.4694 16.7662 22.803 18.7232C22.9351 19.4992 22.3481 20.2103 21.5671 20.2103H12.3439C11.5629 20.2103 10.9759 19.4992 11.108 18.7232C11.4416 16.7662 13.1324 15.2773 15.1677 15.2773Z" stroke="white" stroke-width="2"/>
<path d="M14.0964 10.1214L8.98621 15.2764L2.25234 8.54843L2.24314 8.53915C1.13518 7.45184 0.726283 5.82889 1.18535 4.33922C1.64442 2.84954 2.89286 1.74705 4.41725 1.48471C5.69913 1.26455 6.99356 1.67029 7.92174 2.55093L7.95686 2.58636L8.9628 3.61462L9.99467 2.61335L10.0407 2.56865C10.9237 1.73187 12.1387 1.32528 13.3578 1.47965L13.5619 1.51086C15.0737 1.77995 16.3121 2.87738 16.7695 4.35609C17.048 5.25529 17.0095 6.20342 16.6917 7.0537" stroke="white" stroke-width="2"/>
</svg>
