<svg width="24" height="24" viewBox="0 0 24 24" fill="none" xmlns="http://www.w3.org/2000/svg">
<path fill-rule="evenodd" clip-rule="evenodd" d="M17.58 3.17211C19.6091 2.40599 21.5938 4.39071 20.8277 6.41981L16.0539 19.0633C15.0357 21.7599 11.1711 21.6088 10.3665 18.841L9.34702 15.3339C9.25149 15.0053 8.99454 14.7483 8.66591 14.6528L5.15876 13.6333C2.39094 12.8287 2.23993 8.96407 4.93651 7.94592L17.58 3.17211ZM18.9566 5.71334C19.1147 5.29465 18.7052 4.8851 18.2865 5.04319L5.64297 9.81699C4.7441 10.1564 4.79445 11.4446 5.71705 11.7128L9.2242 12.7323C10.2101 13.0189 10.9809 13.7897 11.2675 14.7756L12.287 18.2827C12.5552 19.2053 13.8434 19.2557 14.1828 18.3568L18.9566 5.71334Z" fill="#77787C"/>
</svg>
