<svg width="25" height="24" viewBox="0 0 25 24" fill="none" xmlns="http://www.w3.org/2000/svg">
<path fill-rule="evenodd" clip-rule="evenodd" d="M11.5 19C11.5 20.1046 10.6046 21 9.5 21C8.39543 21 7.5 20.1046 7.5 19C7.5 17.8954 8.39543 17 9.5 17C10.6046 17 11.5 17.8954 11.5 19ZM19.5 19C19.5 20.1046 18.6046 21 17.5 21C16.3954 21 15.5 20.1046 15.5 19C15.5 17.8954 16.3954 17 17.5 17C18.6046 17 19.5 17.8954 19.5 19Z" fill="#77787C"/>
<path fill-rule="evenodd" clip-rule="evenodd" d="M3.5 4C3.5 3.44772 3.94772 3 4.5 3H4.86039C6.29044 3 7.52168 4.00938 7.80213 5.41165L7.9198 6H18.9969C20.6551 6 21.8538 7.58485 21.4025 9.18045L20.374 12.8165C20.0086 14.1082 18.8296 15 17.4872 15H10.1396C8.70956 15 7.47832 13.9906 7.19787 12.5883L5.84097 5.80389C5.74749 5.33646 5.33707 5 4.86039 5H4.5C3.94772 5 3.5 4.55228 3.5 4ZM8.3198 8L9.15903 12.1961C9.25251 12.6635 9.66293 13 10.1396 13H17.4872C17.9347 13 18.3277 12.7027 18.4495 12.2722L19.478 8.63609C19.5683 8.31697 19.3285 8 18.9969 8H8.3198Z" fill="#77787C"/>
</svg>
