<svg width="64" height="64" viewBox="0 0 64 64" fill="none" xmlns="http://www.w3.org/2000/svg">
<rect width="64" height="64" rx="32" fill="#079EA5"/>
<path fill-rule="evenodd" clip-rule="evenodd" d="M32.0003 18.668C28.3184 18.668 25.3337 21.6527 25.3337 25.3346C25.3337 29.0165 28.3184 32.0013 32.0003 32.0013C35.6822 32.0013 38.667 29.0165 38.667 25.3346C38.667 21.6527 35.6822 18.668 32.0003 18.668ZM32.0003 21.3346C34.2095 21.3346 36.0003 23.1255 36.0003 25.3346C36.0003 27.5438 34.2095 29.3346 32.0003 29.3346C29.7912 29.3346 28.0003 27.5438 28.0003 25.3346C28.0003 23.1255 29.7912 21.3346 32.0003 21.3346ZM41.3275 41.0454C41.1761 37.4977 38.252 34.668 34.667 34.668H29.3337L29.0445 34.6741C25.4967 34.8255 22.667 37.7496 22.667 41.3346V44.0013L22.676 44.1568C22.753 44.8199 23.3165 45.3346 24.0003 45.3346C24.7367 45.3346 25.3337 44.7377 25.3337 44.0013V41.3346L25.3404 41.0996C25.4621 38.9999 27.2034 37.3346 29.3337 37.3346H34.667L34.902 37.3414C37.0018 37.4631 38.667 39.2044 38.667 41.3346V44.0013L38.676 44.1568C38.753 44.8199 39.3165 45.3346 40.0003 45.3346C40.7367 45.3346 41.3337 44.7377 41.3337 44.0013V41.3346L41.3275 41.0454Z" fill="white"/>
</svg>
