<svg width="64" height="64" viewBox="0 0 64 64" fill="none" xmlns="http://www.w3.org/2000/svg">
<rect width="64" height="64" rx="32" fill="#889D1E"/>
<path fill-rule="evenodd" clip-rule="evenodd" d="M32.926 20.3743C32.8205 20.2722 32.702 20.1909 32.5759 20.1305C32.394 20.0434 32.1967 20 31.9997 20C31.6649 20 31.3307 20.1254 31.0733 20.3743C28.6379 22.7018 27.1229 25.7968 26.7525 29.097C24.3714 27.5236 21.5631 26.6667 18.6663 26.6667C17.93 26.6667 17.333 27.2636 17.333 28C17.333 36.1002 23.8995 42.6667 31.9997 42.6667C40.0998 42.6667 46.6663 36.1002 46.6663 28C46.6663 27.2636 46.0694 26.6667 45.333 26.6667C42.3446 26.6667 39.5649 27.5605 37.2467 29.0953C36.876 25.7958 35.3611 22.7014 32.926 20.3743ZM31.9997 23.2852C30.1576 25.5071 29.1991 28.352 29.3447 31.2668C29.3449 31.2712 29.3451 31.2755 29.3453 31.2799C30.4465 32.4496 31.3387 33.782 31.9977 35.219C32.667 33.7616 33.5682 32.4328 34.6541 31.2798L34.6547 31.2668C34.8002 28.352 33.8417 25.5071 31.9997 23.2852ZM30.5825 39.9172C30.2664 37.2562 29.0657 34.7621 27.1516 32.8481C25.2376 30.934 22.7435 29.7333 20.0825 29.4171C20.7289 34.9119 25.0878 39.2707 30.5825 39.9172ZM43.917 29.416C38.4213 30.062 34.0617 34.4217 33.4157 39.9173C38.9113 39.2713 43.271 34.9117 43.917 29.416Z" fill="white"/>
</svg>
