<svg width="64" height="64" viewBox="0 0 64 64" fill="none" xmlns="http://www.w3.org/2000/svg">
<rect width="64" height="64" rx="32" fill="#FFAD29"/>
<path fill-rule="evenodd" clip-rule="evenodd" d="M31.9997 35.9987C34.2088 35.9987 35.9997 34.2078 35.9997 31.9987C35.9997 29.7896 34.2088 27.9987 31.9997 27.9987C29.7905 27.9987 27.9997 29.7896 27.9997 31.9987C27.9997 34.2078 29.7905 35.9987 31.9997 35.9987ZM31.9997 38.6654C35.6816 38.6654 38.6663 35.6806 38.6663 31.9987C38.6663 28.3168 35.6816 25.332 31.9997 25.332C28.3178 25.332 25.333 28.3168 25.333 31.9987C25.333 35.6806 28.3178 38.6654 31.9997 38.6654Z" fill="white"/>
<path d="M30.667 20.0013C30.667 19.2649 31.2639 18.668 32.0003 18.668C32.7367 18.668 33.3337 19.2649 33.3337 20.0013V21.3346C33.3337 22.071 32.7367 22.668 32.0003 22.668C31.2639 22.668 30.667 22.071 30.667 21.3346V20.0013Z" fill="white"/>
<path d="M23.515 25.4024C24.0357 25.9231 24.8799 25.9231 25.4006 25.4024C25.9213 24.8817 25.9213 24.0375 25.4006 23.5168L24.4578 22.574C23.9371 22.0533 23.0929 22.0533 22.5722 22.574C22.0515 23.0947 22.0515 23.9389 22.5722 24.4596L23.515 25.4024Z" fill="white"/>
<path d="M41.4285 22.5743C40.9078 22.0536 40.0636 22.0536 39.5429 22.5743L38.6001 23.5171C38.0794 24.0378 38.0794 24.882 38.6001 25.4027C39.1208 25.9234 39.965 25.9234 40.4857 25.4027L41.4285 24.4599C41.9492 23.9392 41.9492 23.095 41.4285 22.5743Z" fill="white"/>
<path d="M25.4008 38.6004C24.8801 38.0797 24.0359 38.0797 23.5152 38.6004L22.5724 39.5432C22.0517 40.0639 22.0517 40.9081 22.5724 41.4288C23.0931 41.9495 23.9373 41.9495 24.458 41.4288L25.4008 40.486C25.9215 39.9653 25.9215 39.1211 25.4008 38.6004Z" fill="white"/>
<path d="M41.4283 41.4285C40.9076 41.9492 40.0634 41.9492 39.5427 41.4285L38.5999 40.4857C38.0792 39.965 38.0792 39.1208 38.5999 38.6001C39.1206 38.0794 39.9648 38.0794 40.4855 38.6001L41.4283 39.5429C41.949 40.0636 41.949 40.9078 41.4283 41.4285Z" fill="white"/>
<path d="M32.0003 41.3346C31.2639 41.3346 30.667 41.9316 30.667 42.668V44.0013C30.667 44.7377 31.2639 45.3346 32.0003 45.3346C32.7367 45.3346 33.3337 44.7377 33.3337 44.0013V42.668C33.3337 41.9316 32.7367 41.3346 32.0003 41.3346Z" fill="white"/>
<path d="M44.0003 30.668C44.7367 30.668 45.3337 31.2649 45.3337 32.0013C45.3337 32.7377 44.7367 33.3346 44.0003 33.3346H42.667C41.9306 33.3346 41.3337 32.7377 41.3337 32.0013C41.3337 31.2649 41.9306 30.668 42.667 30.668H44.0003Z" fill="white"/>
<path d="M22.667 32.0013C22.667 31.2649 22.07 30.668 21.3337 30.668H20.0003C19.2639 30.668 18.667 31.2649 18.667 32.0013C18.667 32.7377 19.2639 33.3346 20.0003 33.3346H21.3337C22.07 33.3346 22.667 32.7377 22.667 32.0013Z" fill="white"/>
</svg>
